<svg width="25" height="168" viewBox="0 0 25 168" fill="none" xmlns="http://www.w3.org/2000/svg">
<path d="M11.2482 47.0779C10.6385 53.7588 8.12021 77.669 3.8709 88.616L3.52046 166.025C8.77535 158.271 12.7384 137.625 16.6919 117.138C19.7901 100.788 20.6806 82.272 20.841 67.8872C19.3736 53.8712 14.9528 11.7638 13.8771 0.329737C12.9373 19.0363 12.2023 35.9823 11.2482 47.0779Z" fill="#D7DEE1"/>
<g style="mix-blend-mode:multiply">
<path d="M11.2482 47.0779C10.6385 53.7588 8.12021 77.669 3.8709 88.616L3.52046 166.025C8.77535 158.271 12.7384 137.625 16.6919 117.138C19.7901 100.788 20.6806 82.272 20.841 67.8872C19.3736 53.8712 14.9528 11.7638 13.8771 0.329737C12.9373 19.0363 12.2023 35.9823 11.2482 47.0779Z" fill="#D7DEE1"/>
<path d="M11.2482 47.0779C10.6385 53.7588 8.12021 77.669 3.8709 88.616L3.52046 166.025C8.77535 158.271 12.7384 137.625 16.6919 117.138C19.7901 100.788 20.6806 82.272 20.841 67.8872C19.3736 53.8712 14.9528 11.7638 13.8771 0.329737C12.9373 19.0363 12.2023 35.9823 11.2482 47.0779Z" stroke="#395C6B" stroke-width="7" stroke-miterlimit="1"/>
</g>
</svg>
