<svg width="70" height="70" viewBox="0 0 70 70" fill="none" xmlns="http://www.w3.org/2000/svg">
<path fill-rule="evenodd" clip-rule="evenodd" d="M31.135 7.02197e-08C26.1698 0.000423075 21.2767 1.18823 16.8639 3.46431C12.4511 5.7404 8.64662 9.03876 5.76783 13.0842C2.88904 17.1297 1.01943 21.8049 0.314985 26.7199C-0.389463 31.6349 0.0916776 36.647 1.71827 41.3382C3.34485 46.0294 6.06972 50.2636 9.66553 53.6876C13.2613 57.1115 17.6238 59.6259 22.389 61.0209C27.1542 62.416 32.1839 62.6513 37.0585 61.7071C41.9331 60.763 46.5113 58.6668 50.411 55.5935L63.7892 68.9717C64.4801 69.639 65.4054 70.0082 66.3659 69.9998C67.3264 69.9915 68.2452 69.6062 68.9244 68.927C69.6036 68.2478 69.9888 67.3291 69.9972 66.3686C70.0055 65.4081 69.6363 64.4827 68.969 63.7918L55.5908 50.4136C59.2101 45.8222 61.4636 40.3045 62.0935 34.4922C62.7233 28.6798 61.704 22.8075 59.1523 17.5473C56.6006 12.2871 52.6195 7.85165 47.6647 4.74842C42.7098 1.64519 36.9814 -0.000392493 31.135 7.02197e-08ZM7.32385 31.1376C7.32385 24.8225 9.83251 18.7661 14.298 14.3006C18.7634 9.83516 24.8199 7.3265 31.135 7.3265C37.4501 7.3265 43.5065 9.83516 47.972 14.3006C52.4374 18.7661 54.9461 24.8225 54.9461 31.1376C54.9461 37.4527 52.4374 43.5092 47.972 47.9746C43.5065 52.4401 37.4501 54.9487 31.135 54.9487C24.8199 54.9487 18.7634 52.4401 14.298 47.9746C9.83251 43.5092 7.32385 37.4527 7.32385 31.1376Z" fill="#4D6C7A"/>
</svg>
