<svg width="55" height="55" viewBox="0 0 55 55" fill="none" xmlns="http://www.w3.org/2000/svg">
<path d="M24.75 41.25H30.25V24.75H24.75V41.25ZM27.5 19.25C28.2792 19.25 28.9328 18.986 29.4608 18.458C29.9888 17.93 30.2518 17.2773 30.25 16.5C30.25 15.7208 29.986 15.0682 29.458 14.542C28.93 14.0158 28.2773 13.7518 27.5 13.75C26.7208 13.75 26.0682 14.014 25.542 14.542C25.0158 15.07 24.7518 15.7227 24.75 16.5C24.75 17.2792 25.014 17.9328 25.542 18.4608C26.07 18.9888 26.7227 19.2518 27.5 19.25ZM27.5 55C23.6958 55 20.1208 54.2777 16.775 52.833C13.4292 51.3883 10.5188 49.4294 8.04375 46.9563C5.56875 44.4813 3.60983 41.5708 2.167 38.225C0.724167 34.8792 0.00183333 31.3042 0 27.5C0 23.6958 0.722334 20.1208 2.167 16.775C3.61167 13.4292 5.57058 10.5188 8.04375 8.04375C10.5188 5.56875 13.4292 3.60983 16.775 2.167C20.1208 0.724167 23.6958 0.00183333 27.5 0C31.3042 0 34.8792 0.722334 38.225 2.167C41.5708 3.61167 44.4813 5.57058 46.9563 8.04375C49.4313 10.5188 51.3911 13.4292 52.8357 16.775C54.2804 20.1208 55.0018 23.6958 55 27.5C55 31.3042 54.2777 34.8792 52.833 38.225C51.3883 41.5708 49.4294 44.4813 46.9563 46.9563C44.4813 49.4313 41.5708 51.3911 38.225 52.8357C34.8792 54.2804 31.3042 55.0018 27.5 55Z" fill="white"/>
</svg>
