<svg width="29" height="29" viewBox="0 0 29 29" fill="none" xmlns="http://www.w3.org/2000/svg">
<path d="M0.610989 25.4592C0.221989 25.8482 0.0034523 26.3758 0.0034523 26.9259C0.0034523 27.476 0.221989 28.0035 0.610989 28.3925C0.999989 28.7815 1.52758 29 2.07771 29C2.62784 29 3.15544 28.7815 3.54444 28.3925L14.5 17.4341L25.459 28.389C25.848 28.778 26.3756 28.9965 26.9257 28.9965C27.4759 28.9965 28.0035 28.778 28.3925 28.389C28.7815 28.0001 29 27.4725 29 26.9224C29 26.3723 28.7815 25.8447 28.3925 25.4558L17.4334 14.5009L28.389 3.5425C28.778 3.15352 28.9965 2.62596 28.9965 2.07586C28.9965 1.52577 28.778 0.998202 28.389 0.609226C28 0.22025 27.4724 0.00172517 26.9223 0.00172517C26.3722 0.00172516 25.8446 0.22025 25.4556 0.609226L14.5 11.5676L3.54099 0.6075C3.15199 0.218524 2.62439 -9.16459e-09 2.07426 0C1.52414 9.16459e-09 0.996538 0.218524 0.60754 0.6075C0.21854 0.996476 3.8147e-06 1.52404 3.8147e-06 2.07414C3.8147e-06 2.62423 0.21854 3.1518 0.60754 3.54077L11.5666 14.5009L0.610989 25.4592Z" fill="#395C6B"/>
</svg>
