<svg width="49" height="51" viewBox="0 0 49 51" fill="none" xmlns="http://www.w3.org/2000/svg">
<path d="M44.2192 20.5247C44.2192 20.1164 44.1419 19.712 43.9918 19.3347C43.8416 18.9574 43.6215 18.6146 43.3441 18.3258C43.0667 18.0371 42.7373 17.808 42.3748 17.6517C42.0123 17.4955 41.6238 17.415 41.2314 17.415C40.8391 17.415 40.4506 17.4955 40.0881 17.6517C39.7256 17.808 39.3962 18.0371 39.1188 18.3258C38.8413 18.6146 38.6213 18.9574 38.4711 19.3347C38.321 19.712 38.2437 20.1164 38.2437 20.5247H44.2192ZM10.7563 20.5247C10.7563 19.7 10.4415 18.909 9.88123 18.3258C9.32091 17.7426 8.56096 17.415 7.76856 17.415C6.97616 17.415 6.21621 17.7426 5.6559 18.3258C5.09559 18.909 4.78081 19.7 4.78081 20.5247H10.7563ZM43.8989 27.6995C44.4593 28.2827 45.2193 28.6104 46.0118 28.6104C46.8044 28.6104 47.5644 28.2827 48.1248 27.6995C48.6852 27.1162 49 26.3251 49 25.5003C49 24.6754 48.6852 23.8844 48.1248 23.3011L43.8989 27.6995ZM24.5 3.1103L26.6129 0.911106C26.3355 0.622255 26.0061 0.393121 25.6435 0.236792C25.281 0.0804623 24.8924 0 24.5 0C24.1076 0 23.719 0.0804623 23.3565 0.236792C22.9939 0.393121 22.6645 0.622255 22.3871 0.911106L24.5 3.1103ZM0.875209 23.3011C0.314822 23.8844 0 24.6754 0 25.5003C0 26.3251 0.314822 27.1162 0.875209 27.6995C1.4356 28.2827 2.19564 28.6104 2.98815 28.6104C3.78066 28.6104 4.54071 28.2827 5.10109 27.6995L0.875209 23.3011ZM12.549 51H36.451V44.7806H12.549V51ZM44.2192 42.9147V20.5247H38.2437V42.9147H44.2192ZM10.7563 42.9147V20.5247H4.78081V42.9147H10.7563ZM48.1248 23.3011L26.6129 0.911106L22.3871 5.3095L43.8989 27.6995L48.1248 23.3011ZM22.3871 0.911106L0.875209 23.3011L5.10109 27.6995L26.6129 5.3095L22.3871 0.911106ZM36.451 51C38.5113 51 40.4871 50.1482 41.944 48.6319C43.4008 47.1156 44.2192 45.0591 44.2192 42.9147H38.2437C38.2437 43.4096 38.0548 43.8842 37.7186 44.2341C37.3824 44.584 36.9265 44.7806 36.451 44.7806V51ZM12.549 44.7806C12.0735 44.7806 11.6176 44.584 11.2814 44.2341C10.9452 43.8842 10.7563 43.4096 10.7563 42.9147H4.78081C4.78081 45.0591 5.59923 47.1156 7.05605 48.6319C8.51286 50.1482 10.4887 51 12.549 51V44.7806Z" fill="#395C6B"/>
</svg>
