<svg width="36" height="45" viewBox="0 0 36 45" fill="none" xmlns="http://www.w3.org/2000/svg">
<path fill-rule="evenodd" clip-rule="evenodd" d="M21.5685 0C22.625 0.000258145 23.6477 0.372227 24.4575 1.05075L24.75 1.3185L34.6815 11.25C35.4285 11.9971 35.8889 12.9831 35.982 14.0355L36 14.4315V40.5C36.0004 41.6353 35.5716 42.7288 34.7996 43.5612C34.0277 44.3937 32.9696 44.9036 31.8375 44.9887L31.5 45H4.5C3.3647 45.0004 2.27123 44.5716 1.43877 43.7996C0.606309 43.0277 0.0963977 41.9696 0.0112505 40.8375L2.25603e-07 40.5V4.5C-0.000359053 3.3647 0.428414 2.27123 1.20037 1.43877C1.97232 0.606309 3.0304 0.0963975 4.1625 0.0112503L4.5 0H21.5685ZM18 4.5H4.5V40.5H31.5V18H21.375C20.536 18 19.7271 17.6874 19.1061 17.1234C18.485 16.5593 18.0963 15.7841 18.0157 14.949L18 14.625V4.5ZM20.223 22.158C20.7622 25.5847 22.5542 28.6892 25.2517 30.87C27.2475 32.4832 25.4227 35.6422 23.0287 34.722C19.7919 33.4764 16.208 33.4764 12.9712 34.722C10.575 35.6445 8.75025 32.4832 10.746 30.87C13.4437 28.6893 15.2357 25.5847 15.7747 22.158C16.1752 19.6222 19.8247 19.6245 20.223 22.158ZM17.9955 27.342L16.4475 30.033H19.5525L17.9955 27.342ZM22.5 5.4315V13.5H30.5685L22.5 5.4315Z" fill="#395C6B"/>
</svg>
