<svg width="46" height="46" viewBox="0 0 46 46" fill="none" xmlns="http://www.w3.org/2000/svg">
<path d="M3.83325 11.5C3.83325 8.61541 5.32825 5.59666 7.66659 3.83333C7.66659 5.45291 8.98909 7.66666 11.4999 7.66666C13.0249 7.66666 14.4874 8.27246 15.5658 9.3508C16.6441 10.4291 17.2499 11.8917 17.2499 13.4167C17.2499 14.1565 17.0985 14.858 16.8436 15.5077C18.2653 16.6361 19.6653 17.7914 21.043 18.9731L17.0563 22.9597C15.8751 21.5817 14.7198 20.1816 13.591 18.7603C12.9257 19.0258 12.2163 19.1637 11.4999 19.1667C7.26409 19.1667 3.83325 15.7358 3.83325 11.5ZM27.1246 24.6253L29.6948 22.0551C30.8851 22.6678 32.2029 22.9916 33.5416 23C35.8291 23 38.0229 22.0913 39.6404 20.4738C41.2579 18.8563 42.1666 16.6625 42.1666 14.375C42.1666 12.9854 41.8063 11.6897 41.2217 10.5282L34.4999 17.25L30.6666 13.4167L37.3883 6.69491C36.1981 6.08216 34.8803 5.75844 33.5416 5.74999C31.2541 5.74999 29.0603 6.6587 27.4428 8.2762C25.8253 9.8937 24.9166 12.0875 24.9166 14.375C24.9166 15.7646 25.2769 17.0602 25.8615 18.2217L5.74992 38.3333L9.58325 42.1667L22.7086 29.0413C26.3184 32.745 30.1437 36.2324 34.1645 39.4852L36.8958 41.6875L39.7708 38.8125L37.5685 36.0812C34.3157 32.0604 30.8283 28.2351 27.1246 24.6253Z" fill="#395C6B"/>
</svg>
